<?xml version="1.0" standalone="no"?>
<!DOCTYPE svg PUBLIC "-//W3C//DTD SVG 20010904//EN"
 "http://www.w3.org/TR/2001/REC-SVG-20010904/DTD/svg10.dtd">
<svg version="1.0" xmlns="http://www.w3.org/2000/svg"
 width="64.000000pt" height="64.000000pt" viewBox="0 0 64.000000 64.000000"
 preserveAspectRatio="xMidYMid meet">
<metadata>
Created by potrace 1.16, written by Peter Selinger 2001-2019
</metadata>
<g transform="translate(0.000000,64.000000) scale(0.100000,-0.100000)"
fill="#000000" stroke="none">
<path d="M277 603 c-12 -13 -34 -18 -69 -18 -50 0 -52 -1 -62 -33 -7 -26 -20
-39 -54 -55 -44 -22 -44 -22 -38 -64 4 -32 1 -47 -14 -66 -25 -31 -25 -64 -3
-90 12 -13 18 -36 18 -70 0 -49 1 -51 33 -61 26 -7 39 -20 55 -54 22 -44 22
-44 64 -38 31 4 47 1 65 -13 39 -30 54 -31 89 -5 25 18 41 23 61 19 41 -10 63
1 76 39 9 24 24 38 53 52 41 18 41 19 35 60 -4 33 -1 48 14 67 25 31 25 64 3
90 -12 13 -18 36 -18 70 0 49 -1 51 -33 61 -26 7 -39 20 -55 54 -22 44 -22 44
-64 38 -32 -4 -47 -1 -66 14 -31 25 -67 26 -90 3z m77 -24 c20 -16 37 -20 68
-17 40 4 42 2 56 -33 10 -27 24 -41 51 -51 35 -14 37 -17 33 -55 -3 -31 2 -49
19 -72 l23 -31 -23 -31 c-17 -23 -22 -41 -19 -72 4 -38 2 -41 -33 -55 -27 -10
-41 -24 -51 -51 -14 -35 -17 -37 -55 -33 -31 3 -49 -2 -72 -19 l-31 -23 -31
23 c-23 17 -41 22 -72 19 -38 -4 -41 -2 -55 33 -10 27 -24 41 -51 51 -35 14
-37 17 -33 55 3 31 -2 49 -19 72 l-23 31 23 31 c17 23 22 41 19 72 -4 38 -2
41 33 55 27 10 41 24 51 51 14 35 16 37 56 33 31 -3 48 1 68 17 15 12 30 21
34 21 4 0 19 -9 34 -21z"/>
</g>
</svg>
