<?xml version="1.0" standalone="no"?>
<!DOCTYPE svg PUBLIC "-//W3C//DTD SVG 20010904//EN"
 "http://www.w3.org/TR/2001/REC-SVG-20010904/DTD/svg10.dtd">
<svg version="1.0" xmlns="http://www.w3.org/2000/svg"
 width="512.000000pt" height="384.000000pt" viewBox="0 0 512.000000 384.000000"
 preserveAspectRatio="xMidYMid meet">
<metadata>
Created by potrace 1.16, written by Peter Selinger 2001-2019
</metadata>
<g transform="translate(0.000000,384.000000) scale(0.100000,-0.100000)"
fill="#000000" stroke="none">
<path d="M2285 3545 c-304 -49 -551 -167 -756 -363 -126 -120 -144 -171 -76
-228 50 -42 82 -30 176 64 294 298 753 419 1226 326 207 -41 417 -139 603
-281 54 -41 99 -44 139 -9 22 19 28 32 28 65 0 50 -27 80 -145 160 -213 146
-438 232 -707 271 -97 14 -389 11 -488 -5z"/>
<path d="M2353 3240 c-272 -38 -513 -155 -706 -343 -79 -77 -212 -244 -289
-362 -67 -103 -74 -145 -35 -191 18 -21 32 -27 64 -27 22 0 46 4 52 8 7 4 33
39 58 78 129 201 298 392 418 474 186 126 387 183 641 183 156 0 263 -18 392
-66 234 -88 421 -228 605 -455 62 -76 110 -86 165 -36 16 15 22 32 22 61 0 33
-9 52 -56 113 -151 196 -410 393 -638 483 -163 64 -254 81 -451 85 -99 2 -208
0 -242 -5z"/>
<path d="M2425 2929 c-120 -15 -215 -43 -318 -95 -195 -98 -314 -216 -492
-488 -106 -164 -177 -245 -273 -313 -34 -25 -67 -53 -72 -63 -27 -50 0 -112
56 -130 46 -15 96 9 195 94 104 88 146 140 281 351 159 248 325 382 540 436
116 30 309 30 428 0 177 -44 354 -159 459 -297 72 -96 139 -234 153 -316 12
-66 2 -233 -21 -378 -66 -404 -57 -495 63 -675 56 -84 172 -203 206 -210 33
-7 84 16 100 44 5 11 10 35 10 54 0 28 -12 46 -69 108 -73 77 -124 153 -147
216 -19 55 -17 168 7 323 70 461 66 556 -31 751 -147 294 -397 499 -687 564
-150 33 -260 40 -388 24z"/>
<path d="M2372 2599 c-224 -58 -427 -240 -554 -499 -28 -58 -65 -125 -82 -150
-67 -100 -242 -260 -402 -368 -66 -44 -74 -56 -74 -105 1 -52 40 -87 98 -87
43 0 222 128 370 265 99 92 168 185 246 333 82 156 140 238 218 306 172 151
412 180 611 74 74 -40 184 -146 219 -214 72 -135 75 -263 14 -564 -42 -211
-46 -378 -12 -505 62 -228 166 -364 338 -445 96 -45 127 -48 165 -16 17 14 34
37 37 51 8 31 -17 93 -41 102 -57 19 -143 66 -179 97 -46 39 -92 120 -126 221
-32 96 -32 293 -1 440 42 197 48 242 48 375 0 189 -27 273 -135 421 -72 99
-233 216 -345 251 -138 43 -289 49 -413 17z"/>
<path d="M3644 2356 c-18 -8 -36 -27 -44 -46 -12 -28 -10 -40 13 -113 37 -115
48 -171 55 -295 9 -137 -3 -327 -28 -469 -11 -62 -20 -128 -20 -148 0 -88 110
-118 167 -45 13 17 46 180 64 316 16 123 6 454 -16 554 -33 149 -65 225 -106
245 -34 18 -45 18 -85 1z"/>
<path d="M2449 2285 c-82 -22 -142 -58 -210 -125 -56 -55 -77 -87 -134 -200
-150 -299 -262 -419 -668 -710 -87 -62 -162 -121 -167 -131 -33 -61 11 -139
79 -139 30 0 63 19 191 112 240 172 317 234 431 348 121 121 214 254 303 432
80 161 142 220 249 234 172 24 309 -177 252 -372 -45 -156 -185 -353 -410
-580 -189 -189 -336 -317 -622 -536 -68 -52 -84 -87 -61 -135 16 -35 70 -63
103 -54 89 23 617 474 816 696 362 403 452 671 318 938 -91 179 -289 273 -470
222z"/>
<path d="M2515 1931 c-28 -12 -37 -24 -82 -111 -147 -285 -456 -613 -875 -928
-130 -97 -153 -125 -141 -174 16 -64 82 -92 138 -59 121 71 433 330 605 502
259 259 480 575 480 686 0 63 -68 108 -125 84z"/>
<path d="M2782 1219 c-15 -5 -35 -33 -55 -76 -30 -65 -32 -73 -31 -193 0 -107
3 -134 23 -185 66 -166 259 -375 348 -375 48 0 93 45 93 94 0 29 -7 42 -42 73
-172 153 -231 245 -236 373 -3 58 1 87 17 130 30 79 28 113 -10 144 -31 27
-66 32 -107 15z"/>
<path d="M2299 703 c-55 -27 -98 -61 -171 -132 -89 -87 -98 -99 -98 -133 0
-55 40 -98 92 -98 36 0 46 7 111 73 102 102 161 140 210 134 63 -8 114 -73
148 -185 16 -54 50 -82 99 -82 27 0 45 7 64 26 32 33 34 73 5 149 -69 185
-186 285 -333 285 -41 0 -70 -8 -127 -37z"/>
</g>
</svg>
